<svg xmlns="http://www.w3.org/2000/svg" viewBox="0 0 41 41">
    <defs>
        <path id="cell" d="M0.22 0h0.56a0.22 0.22 0 0 1 0.22 0.22v0.56a0.22 0.22 0 0 1 -0.22 0.22h-0.56a0.22 0.22 0 0 1 -0.22 -0.22v-0.56a0.22 0.22 0 0 1 0.22 -0.22z"/>
        <g id="qrbits">
        <use href="#cell" x="12" y="4"/> <use href="#cell" x="16" y="4"/> <use href="#cell" x="17" y="4"/> <use href="#cell" x="19" y="4"/> <use href="#cell" x="21" y="4"/> <use href="#cell" x="22" y="4"/> <use href="#cell" x="23" y="4"/> <use href="#cell" x="24" y="4"/> <use href="#cell" x="27" y="4"/>
        <use href="#cell" x="13" y="5"/> <use href="#cell" x="14" y="5"/> <use href="#cell" x="17" y="5"/> <use href="#cell" x="18" y="5"/> <use href="#cell" x="21" y="5"/> <use href="#cell" x="24" y="5"/> <use href="#cell" x="28" y="5"/>
        <use href="#cell" x="13" y="6"/> <use href="#cell" x="15" y="6"/> <use href="#cell" x="19" y="6"/> <use href="#cell" x="21" y="6"/> <use href="#cell" x="22" y="6"/> <use href="#cell" x="23" y="6"/> <use href="#cell" x="24" y="6"/> <use href="#cell" x="25" y="6"/> <use href="#cell" x="27" y="6"/>
        <use href="#cell" x="14" y="7"/> <use href="#cell" x="17" y="7"/> <use href="#cell" x="18" y="7"/> <use href="#cell" x="19" y="7"/> <use href="#cell" x="20" y="7"/> <use href="#cell" x="23" y="7"/> <use href="#cell" x="24" y="7"/> <use href="#cell" x="26" y="7"/> <use href="#cell" x="27" y="7"/>
        <use href="#cell" x="12" y="8"/> <use href="#cell" x="13" y="8"/> <use href="#cell" x="14" y="8"/> <use href="#cell" x="16" y="8"/> <use href="#cell" x="18" y="8"/> <use href="#cell" x="19" y="8"/> <use href="#cell" x="21" y="8"/> <use href="#cell" x="22" y="8"/> <use href="#cell" x="25" y="8"/> <use href="#cell" x="26" y="8"/> <use href="#cell" x="27" y="8"/>
        <use href="#cell" x="12" y="9"/> <use href="#cell" x="13" y="9"/> <use href="#cell" x="14" y="9"/> <use href="#cell" x="16" y="9"/> <use href="#cell" x="18" y="9"/> <use href="#cell" x="24" y="9"/>
        <use href="#cell" x="12" y="10"/> <use href="#cell" x="14" y="10"/> <use href="#cell" x="16" y="10"/> <use href="#cell" x="18" y="10"/> <use href="#cell" x="20" y="10"/> <use href="#cell" x="22" y="10"/> <use href="#cell" x="24" y="10"/> <use href="#cell" x="26" y="10"/> <use href="#cell" x="28" y="10"/>
        <use href="#cell" x="13" y="11"/> <use href="#cell" x="14" y="11"/> <use href="#cell" x="15" y="11"/> <use href="#cell" x="17" y="11"/> <use href="#cell" x="18" y="11"/> <use href="#cell" x="25" y="11"/> <use href="#cell" x="26" y="11"/>
        <use href="#cell" x="5" y="12"/> <use href="#cell" x="6" y="12"/> <use href="#cell" x="7" y="12"/> <use href="#cell" x="8" y="12"/> <use href="#cell" x="9" y="12"/> <use href="#cell" x="10" y="12"/> <use href="#cell" x="11" y="12"/> <use href="#cell" x="13" y="12"/> <use href="#cell" x="14" y="12"/> <use href="#cell" x="17" y="12"/> <use href="#cell" x="18" y="12"/> <use href="#cell" x="21" y="12"/> <use href="#cell" x="22" y="12"/> <use href="#cell" x="26" y="12"/> <use href="#cell" x="28" y="12"/> <use href="#cell" x="31" y="12"/> <use href="#cell" x="32" y="12"/> <use href="#cell" x="36" y="12"/>
        <use href="#cell" x="4" y="13"/> <use href="#cell" x="7" y="13"/> <use href="#cell" x="12" y="13"/> <use href="#cell" x="13" y="13"/> <use href="#cell" x="16" y="13"/> <use href="#cell" x="17" y="13"/> <use href="#cell" x="20" y="13"/> <use href="#cell" x="22" y="13"/> <use href="#cell" x="23" y="13"/> <use href="#cell" x="24" y="13"/> <use href="#cell" x="27" y="13"/> <use href="#cell" x="30" y="13"/> <use href="#cell" x="31" y="13"/> <use href="#cell" x="34" y="13"/> <use href="#cell" x="35" y="13"/> <use href="#cell" x="36" y="13"/>
        <use href="#cell" x="5" y="14"/> <use href="#cell" x="6" y="14"/> <use href="#cell" x="8" y="14"/> <use href="#cell" x="10" y="14"/> <use href="#cell" x="12" y="14"/> <use href="#cell" x="13" y="14"/> <use href="#cell" x="15" y="14"/> <use href="#cell" x="16" y="14"/> <use href="#cell" x="17" y="14"/> <use href="#cell" x="18" y="14"/> <use href="#cell" x="19" y="14"/> <use href="#cell" x="22" y="14"/> <use href="#cell" x="24" y="14"/> <use href="#cell" x="29" y="14"/> <use href="#cell" x="31" y="14"/> <use href="#cell" x="32" y="14"/> <use href="#cell" x="33" y="14"/> <use href="#cell" x="34" y="14"/> <use href="#cell" x="35" y="14"/>
        <use href="#cell" x="4" y="15"/> <use href="#cell" x="6" y="15"/> <use href="#cell" x="9" y="15"/> <use href="#cell" x="12" y="15"/> <use href="#cell" x="13" y="15"/> <use href="#cell" x="15" y="15"/> <use href="#cell" x="18" y="15"/> <use href="#cell" x="19" y="15"/> <use href="#cell" x="23" y="15"/> <use href="#cell" x="25" y="15"/> <use href="#cell" x="30" y="15"/> <use href="#cell" x="31" y="15"/> <use href="#cell" x="32" y="15"/> <use href="#cell" x="33" y="15"/> <use href="#cell" x="34" y="15"/> <use href="#cell" x="35" y="15"/>
        <use href="#cell" x="4" y="16"/> <use href="#cell" x="5" y="16"/> <use href="#cell" x="6" y="16"/> <use href="#cell" x="8" y="16"/> <use href="#cell" x="10" y="16"/> <use href="#cell" x="11" y="16"/> <use href="#cell" x="12" y="16"/> <use href="#cell" x="16" y="16"/> <use href="#cell" x="17" y="16"/> <use href="#cell" x="22" y="16"/> <use href="#cell" x="26" y="16"/> <use href="#cell" x="29" y="16"/> <use href="#cell" x="31" y="16"/> <use href="#cell" x="32" y="16"/> <use href="#cell" x="33" y="16"/>
        <use href="#cell" x="4" y="17"/> <use href="#cell" x="11" y="17"/> <use href="#cell" x="12" y="17"/> <use href="#cell" x="13" y="17"/> <use href="#cell" x="16" y="17"/> <use href="#cell" x="17" y="17"/> <use href="#cell" x="20" y="17"/> <use href="#cell" x="21" y="17"/> <use href="#cell" x="24" y="17"/> <use href="#cell" x="27" y="17"/> <use href="#cell" x="29" y="17"/> <use href="#cell" x="30" y="17"/> <use href="#cell" x="34" y="17"/> <use href="#cell" x="36" y="17"/>
        <use href="#cell" x="4" y="18"/> <use href="#cell" x="7" y="18"/> <use href="#cell" x="9" y="18"/> <use href="#cell" x="10" y="18"/> <use href="#cell" x="11" y="18"/> <use href="#cell" x="12" y="18"/> <use href="#cell" x="16" y="18"/> <use href="#cell" x="18" y="18"/> <use href="#cell" x="21" y="18"/> <use href="#cell" x="23" y="18"/> <use href="#cell" x="25" y="18"/> <use href="#cell" x="28" y="18"/> <use href="#cell" x="29" y="18"/> <use href="#cell" x="30" y="18"/> <use href="#cell" x="32" y="18"/> <use href="#cell" x="34" y="18"/> <use href="#cell" x="35" y="18"/>
        <use href="#cell" x="11" y="19"/> <use href="#cell" x="12" y="19"/> <use href="#cell" x="14" y="19"/> <use href="#cell" x="15" y="19"/> <use href="#cell" x="16" y="19"/> <use href="#cell" x="19" y="19"/> <use href="#cell" x="20" y="19"/> <use href="#cell" x="21" y="19"/> <use href="#cell" x="22" y="19"/> <use href="#cell" x="23" y="19"/> <use href="#cell" x="24" y="19"/> <use href="#cell" x="25" y="19"/> <use href="#cell" x="28" y="19"/> <use href="#cell" x="29" y="19"/> <use href="#cell" x="30" y="19"/> <use href="#cell" x="32" y="19"/> <use href="#cell" x="33" y="19"/> <use href="#cell" x="34" y="19"/> <use href="#cell" x="35" y="19"/>
        <use href="#cell" x="5" y="20"/> <use href="#cell" x="6" y="20"/> <use href="#cell" x="7" y="20"/> <use href="#cell" x="8" y="20"/> <use href="#cell" x="9" y="20"/> <use href="#cell" x="10" y="20"/> <use href="#cell" x="12" y="20"/> <use href="#cell" x="13" y="20"/> <use href="#cell" x="18" y="20"/> <use href="#cell" x="19" y="20"/> <use href="#cell" x="23" y="20"/> <use href="#cell" x="27" y="20"/> <use href="#cell" x="32" y="20"/> <use href="#cell" x="33" y="20"/> <use href="#cell" x="35" y="20"/> <use href="#cell" x="36" y="20"/>
        <use href="#cell" x="6" y="21"/> <use href="#cell" x="8" y="21"/> <use href="#cell" x="9" y="21"/> <use href="#cell" x="11" y="21"/> <use href="#cell" x="15" y="21"/> <use href="#cell" x="18" y="21"/> <use href="#cell" x="19" y="21"/> <use href="#cell" x="20" y="21"/> <use href="#cell" x="21" y="21"/> <use href="#cell" x="22" y="21"/> <use href="#cell" x="23" y="21"/> <use href="#cell" x="24" y="21"/> <use href="#cell" x="26" y="21"/> <use href="#cell" x="27" y="21"/> <use href="#cell" x="30" y="21"/> <use href="#cell" x="31" y="21"/> <use href="#cell" x="34" y="21"/> <use href="#cell" x="36" y="21"/>
        <use href="#cell" x="4" y="22"/> <use href="#cell" x="5" y="22"/> <use href="#cell" x="8" y="22"/> <use href="#cell" x="10" y="22"/> <use href="#cell" x="11" y="22"/> <use href="#cell" x="12" y="22"/> <use href="#cell" x="14" y="22"/> <use href="#cell" x="15" y="22"/> <use href="#cell" x="16" y="22"/> <use href="#cell" x="18" y="22"/> <use href="#cell" x="20" y="22"/> <use href="#cell" x="24" y="22"/> <use href="#cell" x="25" y="22"/> <use href="#cell" x="26" y="22"/> <use href="#cell" x="29" y="22"/> <use href="#cell" x="31" y="22"/> <use href="#cell" x="35" y="22"/>
        <use href="#cell" x="5" y="23"/> <use href="#cell" x="6" y="23"/> <use href="#cell" x="8" y="23"/> <use href="#cell" x="11" y="23"/> <use href="#cell" x="12" y="23"/> <use href="#cell" x="13" y="23"/> <use href="#cell" x="15" y="23"/> <use href="#cell" x="16" y="23"/> <use href="#cell" x="17" y="23"/> <use href="#cell" x="19" y="23"/> <use href="#cell" x="22" y="23"/> <use href="#cell" x="24" y="23"/> <use href="#cell" x="25" y="23"/> <use href="#cell" x="28" y="23"/> <use href="#cell" x="33" y="23"/> <use href="#cell" x="34" y="23"/> <use href="#cell" x="36" y="23"/>
        <use href="#cell" x="4" y="24"/> <use href="#cell" x="5" y="24"/> <use href="#cell" x="6" y="24"/> <use href="#cell" x="7" y="24"/> <use href="#cell" x="8" y="24"/> <use href="#cell" x="10" y="24"/> <use href="#cell" x="17" y="24"/> <use href="#cell" x="18" y="24"/> <use href="#cell" x="19" y="24"/> <use href="#cell" x="20" y="24"/> <use href="#cell" x="22" y="24"/> <use href="#cell" x="23" y="24"/> <use href="#cell" x="26" y="24"/> <use href="#cell" x="28" y="24"/> <use href="#cell" x="31" y="24"/> <use href="#cell" x="32" y="24"/>
        <use href="#cell" x="4" y="25"/> <use href="#cell" x="8" y="25"/> <use href="#cell" x="9" y="25"/> <use href="#cell" x="11" y="25"/> <use href="#cell" x="12" y="25"/> <use href="#cell" x="13" y="25"/> <use href="#cell" x="14" y="25"/> <use href="#cell" x="17" y="25"/> <use href="#cell" x="27" y="25"/> <use href="#cell" x="30" y="25"/> <use href="#cell" x="33" y="25"/> <use href="#cell" x="34" y="25"/> <use href="#cell" x="36" y="25"/>
        <use href="#cell" x="4" y="26"/> <use href="#cell" x="7" y="26"/> <use href="#cell" x="9" y="26"/> <use href="#cell" x="10" y="26"/> <use href="#cell" x="11" y="26"/> <use href="#cell" x="12" y="26"/> <use href="#cell" x="13" y="26"/> <use href="#cell" x="14" y="26"/> <use href="#cell" x="15" y="26"/> <use href="#cell" x="16" y="26"/> <use href="#cell" x="17" y="26"/> <use href="#cell" x="18" y="26"/> <use href="#cell" x="21" y="26"/> <use href="#cell" x="26" y="26"/> <use href="#cell" x="29" y="26"/> <use href="#cell" x="30" y="26"/> <use href="#cell" x="32" y="26"/> <use href="#cell" x="34" y="26"/> <use href="#cell" x="35" y="26"/>
        <use href="#cell" x="4" y="27"/> <use href="#cell" x="8" y="27"/> <use href="#cell" x="9" y="27"/> <use href="#cell" x="11" y="27"/> <use href="#cell" x="12" y="27"/> <use href="#cell" x="14" y="27"/> <use href="#cell" x="16" y="27"/> <use href="#cell" x="19" y="27"/> <use href="#cell" x="21" y="27"/> <use href="#cell" x="22" y="27"/> <use href="#cell" x="25" y="27"/> <use href="#cell" x="26" y="27"/> <use href="#cell" x="27" y="27"/> <use href="#cell" x="28" y="27"/> <use href="#cell" x="29" y="27"/> <use href="#cell" x="30" y="27"/> <use href="#cell" x="31" y="27"/> <use href="#cell" x="33" y="27"/> <use href="#cell" x="34" y="27"/> <use href="#cell" x="35" y="27"/>
        <use href="#cell" x="4" y="28"/> <use href="#cell" x="9" y="28"/> <use href="#cell" x="10" y="28"/> <use href="#cell" x="12" y="28"/> <use href="#cell" x="13" y="28"/> <use href="#cell" x="14" y="28"/> <use href="#cell" x="15" y="28"/> <use href="#cell" x="24" y="28"/> <use href="#cell" x="26" y="28"/> <use href="#cell" x="28" y="28"/> <use href="#cell" x="29" y="28"/> <use href="#cell" x="30" y="28"/> <use href="#cell" x="31" y="28"/> <use href="#cell" x="32" y="28"/> <use href="#cell" x="36" y="28"/>
        <use href="#cell" x="12" y="29"/> <use href="#cell" x="13" y="29"/> <use href="#cell" x="14" y="29"/> <use href="#cell" x="17" y="29"/> <use href="#cell" x="18" y="29"/> <use href="#cell" x="20" y="29"/> <use href="#cell" x="22" y="29"/> <use href="#cell" x="23" y="29"/> <use href="#cell" x="25" y="29"/> <use href="#cell" x="28" y="29"/> <use href="#cell" x="32" y="29"/> <use href="#cell" x="35" y="29"/> <use href="#cell" x="36" y="29"/>
        <use href="#cell" x="12" y="30"/> <use href="#cell" x="15" y="30"/> <use href="#cell" x="16" y="30"/> <use href="#cell" x="17" y="30"/> <use href="#cell" x="18" y="30"/> <use href="#cell" x="19" y="30"/> <use href="#cell" x="21" y="30"/> <use href="#cell" x="22" y="30"/> <use href="#cell" x="25" y="30"/> <use href="#cell" x="26" y="30"/> <use href="#cell" x="27" y="30"/> <use href="#cell" x="28" y="30"/> <use href="#cell" x="30" y="30"/> <use href="#cell" x="32" y="30"/> <use href="#cell" x="33" y="30"/> <use href="#cell" x="35" y="30"/>
        <use href="#cell" x="12" y="31"/> <use href="#cell" x="13" y="31"/> <use href="#cell" x="14" y="31"/> <use href="#cell" x="19" y="31"/> <use href="#cell" x="20" y="31"/> <use href="#cell" x="21" y="31"/> <use href="#cell" x="24" y="31"/> <use href="#cell" x="25" y="31"/> <use href="#cell" x="26" y="31"/> <use href="#cell" x="27" y="31"/> <use href="#cell" x="28" y="31"/> <use href="#cell" x="32" y="31"/> <use href="#cell" x="33" y="31"/> <use href="#cell" x="34" y="31"/> <use href="#cell" x="36" y="31"/>
        <use href="#cell" x="12" y="32"/> <use href="#cell" x="13" y="32"/> <use href="#cell" x="15" y="32"/> <use href="#cell" x="16" y="32"/> <use href="#cell" x="19" y="32"/> <use href="#cell" x="22" y="32"/> <use href="#cell" x="28" y="32"/> <use href="#cell" x="29" y="32"/> <use href="#cell" x="30" y="32"/> <use href="#cell" x="31" y="32"/> <use href="#cell" x="32" y="32"/> <use href="#cell" x="35" y="32"/> <use href="#cell" x="36" y="32"/>
        <use href="#cell" x="12" y="33"/> <use href="#cell" x="15" y="33"/> <use href="#cell" x="17" y="33"/> <use href="#cell" x="18" y="33"/> <use href="#cell" x="19" y="33"/> <use href="#cell" x="21" y="33"/> <use href="#cell" x="26" y="33"/> <use href="#cell" x="28" y="33"/> <use href="#cell" x="29" y="33"/> <use href="#cell" x="32" y="33"/> <use href="#cell" x="36" y="33"/>
        <use href="#cell" x="12" y="34"/> <use href="#cell" x="14" y="34"/> <use href="#cell" x="15" y="34"/> <use href="#cell" x="17" y="34"/> <use href="#cell" x="18" y="34"/> <use href="#cell" x="20" y="34"/> <use href="#cell" x="25" y="34"/> <use href="#cell" x="27" y="34"/> <use href="#cell" x="30" y="34"/> <use href="#cell" x="33" y="34"/> <use href="#cell" x="34" y="34"/>
        <use href="#cell" x="12" y="35"/> <use href="#cell" x="13" y="35"/> <use href="#cell" x="14" y="35"/> <use href="#cell" x="15" y="35"/> <use href="#cell" x="20" y="35"/> <use href="#cell" x="22" y="35"/> <use href="#cell" x="23" y="35"/> <use href="#cell" x="25" y="35"/> <use href="#cell" x="26" y="35"/> <use href="#cell" x="28" y="35"/> <use href="#cell" x="29" y="35"/> <use href="#cell" x="30" y="35"/> <use href="#cell" x="33" y="35"/> <use href="#cell" x="34" y="35"/>
        <use href="#cell" x="13" y="36"/> <use href="#cell" x="14" y="36"/> <use href="#cell" x="15" y="36"/> <use href="#cell" x="16" y="36"/> <use href="#cell" x="22" y="36"/> <use href="#cell" x="26" y="36"/> <use href="#cell" x="27" y="36"/> <use href="#cell" x="28" y="36"/> <use href="#cell" x="30" y="36"/> <use href="#cell" x="33" y="36"/> <use href="#cell" x="35" y="36"/>
        <path fill-rule="evenodd" d="M5.6 4h3.8a1.6 1.6 0 0 1 1.6 1.6v3.8a1.6 1.6 0 0 1 -1.6 1.6h-3.8a1.6 1.6 0 0 1 -1.6 -1.6v-3.8a1.6 1.6 0 0 1 1.6 -1.6zM5.6 5h3.8a0.6 0.6 0 0 1 0.6 0.6v3.8a0.6 0.6 0 0 1 -0.6 0.6h-3.8a0.6 0.6 0 0 1 -0.6 -0.6v-3.8a0.6 0.6 0 0 1 0.6 -0.6z"/><path d="M6.4 6h2.2a0.4 0.4 0 0 1 0.4 0.4v2.2a0.4 0.4 0 0 1 -0.4 0.4h-2.2a0.4 0.4 0 0 1 -0.4 -0.4v-2.2a0.4 0.4 0 0 1 0.4 -0.4z"/>
        <path fill-rule="evenodd" d="M31.6 4h3.8a1.6 1.6 0 0 1 1.6 1.6v3.8a1.6 1.6 0 0 1 -1.6 1.6h-3.8a1.6 1.6 0 0 1 -1.6 -1.6v-3.8a1.6 1.6 0 0 1 1.6 -1.6zM31.6 5h3.8a0.6 0.6 0 0 1 0.6 0.6v3.8a0.6 0.6 0 0 1 -0.6 0.6h-3.8a0.6 0.6 0 0 1 -0.6 -0.6v-3.8a0.6 0.6 0 0 1 0.6 -0.6z"/><path d="M32.4 6h2.2a0.4 0.4 0 0 1 0.4 0.4v2.2a0.4 0.4 0 0 1 -0.4 0.4h-2.2a0.4 0.4 0 0 1 -0.4 -0.4v-2.2a0.4 0.4 0 0 1 0.4 -0.4z"/>
        <path fill-rule="evenodd" d="M5.6 30h3.8a1.6 1.6 0 0 1 1.6 1.6v3.8a1.6 1.6 0 0 1 -1.6 1.6h-3.8a1.6 1.6 0 0 1 -1.6 -1.6v-3.8a1.6 1.6 0 0 1 1.6 -1.6zM5.6 31h3.8a0.6 0.6 0 0 1 0.6 0.6v3.8a0.6 0.6 0 0 1 -0.6 0.6h-3.8a0.6 0.6 0 0 1 -0.6 -0.6v-3.8a0.6 0.6 0 0 1 0.6 -0.6z"/><path d="M6.4 32h2.2a0.4 0.4 0 0 1 0.4 0.4v2.2a0.4 0.4 0 0 1 -0.4 0.4h-2.2a0.4 0.4 0 0 1 -0.4 -0.4v-2.2a0.4 0.4 0 0 1 0.4 -0.4z"/>
        </g>
    </defs>
    <use href="#qrbits" fill="#fff" stroke="#fff" stroke-width="0.001" stroke-linejoin="round"/>
</svg>
