<svg xmlns="http://www.w3.org/2000/svg" viewBox="0 0 128 128"><path fill="#fefefe" d="M7.6 0h112.6a12 12 0 0 1 7.8 7.5v113.3a15 15 0 0 1-7 7.2H6.8a15 15 0 0 1-6.9-7.3V7.5L.2 7C2 3.5 4 1.3 7.6 0"/><path d="M10.9 4.1C13 3.8 20.6 4 23.2 4H117c3.4.2 6.6 1.1 6.9 5.3.3 4 .1 8.4.1 12.4V118c-.1 4-2.2 5.5-6 6H21.7c-3.3 0-9.3.2-12.4-.1a6 6 0 0 1-3.3-1.4 6 6 0 0 1-1.8-4.2q-.2-8.2-.1-16.5V11.2c.2-5.5 1.8-6.7 6.9-7"/><defs><linearGradient id="a" x1="63.9" x2="63.8" y1="15.6" y2="117.3" gradientUnits="userSpaceOnUse"><stop offset="0" stop-color="#80ffb1"/><stop offset="1" stop-color="#fff"/></linearGradient></defs><path fill="url(#a)" d="M10 10h108V19c.3 10.5 0 23 0 33.5V118c-35.7.4-72.2 0-108 0V10"/><path fill="#7ffeb2" d="M10 10h108V19c-.5-1.3.1-1.7-1.2-2.9l-.4.1-.3.7c-2.2.2-7-.4-10-.4H25.2c-2.7 0-4.6-.1-7.2-.4-2-.1-4.7.8-7 .7-1-1 .4-1.2-1-3z"/><path d="M34.2 98h46.5c2.5 0 13.4-.4 15.8.7 1.4.6 1.8 4.7-2 5.3H34c-3.1 0-4.4-1.9-2.8-4.8.5-.8 2-1 3-1.1M27.4 68.9A10 10 0 1 1 33 88.2 10 10 0 0 1 27.4 69M94.9 68.9a10 10 0 1 1 5.6 19.3A10 10 0 0 1 94.9 69"/></svg>